<?xml version="1.0" encoding="utf-8"?>
<!-- Generator: Adobe Illustrator 21.0.0, SVG Export Plug-In . SVG Version: 6.00 Build 0)  -->
<svg version="1.1" id="Layer_1" xmlns="http://www.w3.org/2000/svg" xmlns:xlink="http://www.w3.org/1999/xlink" x="0px" y="0px"
	 viewBox="0 0 500 298" style="enable-background:new 0 0 500 298;" xml:space="preserve">
<g transform="translate(0.000000,298.000000) scale(0.100000,-0.100000)">
	<path d="M4800,761l-30-16c-24-12-33-13-49-3c-17,10-27,8-64-10c-24-12-57-22-73-22c-30,0-83,27-122,64c-30,26-65,94-59,110
		c7,18,1,25-83,88c-136,101-218,196-286,330l-33,66l11,112c26,247-27,530-165,885c-52,135-58,139-72,54c-6-41-37-74-60-66
		c-19,8-20,86,0,142c13,35,12,42-2,64c-20,31-115,123-121,117c-2-3,2-21,9-40c10-27,10-39,2-47c-9-9-9-16,0-30c18-29-11-75-44-71
		c-52,6-139,124-184,250c-11,29-24,57-30,62c-10,8-157,82-225,113c-58,27-121,47-147,47c-24,0-24,0,11-41c35-42,66-114,66-155
		c0-13-9-28-20-34c-36-19-84,6-148,76c-52,57-65,65-106,70l-41.8,12.3l-15.2,4.7l-62-7c-34-3-75-10-92-14l-30-9l51-16
		c66-22,119-77,135-139c12-44,11-50-7-75c-23-30-174-97-266-118c-13-2-52-11-88-19c-98-22-201-31-345-30c-150,0-202,15-311,90
		c-35,24-67,44-70,44c-4,0-4-14,0-31c9-47-14-32-45,29l-27,51l-26-52c-53-105-75-118-216-125c-93-4-111-2-145,16
		c-65,32-140,120-185,216c-33,70-49,91-86,116c-50,35-176,90-205,90l-40,10c-5,0-10,15-10,33l-6,5c-5-29-11-32-61-22l-61,9
		c-10,3-43-3-72-14c-30-10-65-22-79-25c-23-5-25-9-22-46l4-41l-48,7c-27,4-61,7-76,7c-61,0-164-122-200-235c-27-89-25-93,25-64
		c23,13,52,27,64,31c21,6,22,4,16-25l-6-32l29,15c60,30,244,52,244,28c0-5,9-7,20-4c12,3,20,0,20-6c0-7,4-10,9-7c13,8,98-61,132-106
		c48-67,33-133-31-138c-14-1-27-1-30,0c-11,4-70,5-70,1c0-2,18-28,41-57c47-61,92-97,154-125l44-20l11,1l28-7c15-4,41-7,57-8l147-2
		c28,4,53,5,55,4c1-2-13-34-33-71s-33-70-30-73c3-4,17-1,31,5c49,22,57,13,20-23c-41-42-45-58-11-49c78,19,85-194,11-319
		c-53-91-112-154-169-182c-71-35-137-43-155-21c-21,26-28,19-33-33c-8-79-115-283-239-452c-77-105-97-189-49-204c14-4,20-15,20-34
		c0-38,10-45,34-22c12,11,35,21,51,23c26,3,30,0,33-25c4-33,12-34,42-2c29,31,60,33,60,5c0-26,22-26,45,0c24,27,45,25,45-2
		c1-23,1-23,24,3c28,32,41,113,27,167c-8,28-18,40-42,49l-31,12l7,58c14,117,71,221,145,268c60,38,182,75,268,81c94,7,132-5,132-41
		c0-63,91,4,145,106c53,101,116,197,162,243c38,39,148,116,165,116c18,0,78-52,98-85c12-20,23-59,27-97c5-58,3-67-19-92
		c-16-19-40-32-77-40l-52-12l48-31c62-41,182-155,228-217s83-135,93-183c7-31,12-37,29-35c34,5,98-16,118-38c16-17,17-25,7-58
		c-6-20-26-59-44-87c-28-44-32-57-29-110c4-98-59-235-109-235c-27,0-82-84-87-134c-5-45,23-136,44-143c7-3,17,6,22,20
		c7,18,17,24,41,25c28,1,33-4,51-46l20-47l19,25c11,14,20,30,20,36c0,7,8,15,17,19c21,7,53-27,53-56s17-31,39-4c11,14,21,30,23,34
		s20,11,41,14c36,6,37,5,37-24c0-40,18-33,44,16c15,28,20,59,21,110c0,83-20,125-60,125c-15,0-29,9-36,21c-20,39,4,147,45,198
		c6,8,11,59,12,120c1,86,7,121,28,185c43,126,130,287,186,344c31,31,50,60,50,74c0,63,92,193,161,228c75,39,249,19,264-29
		c12-42,25-199,19-238c-5-32-16-54-40-79c-39-38-41-44-16-44c19,0,79-20,103-35c9-6,55-46,103-91l86-80l20-105
		c25-127,46-153,134-164c47-6,63-4,103,16c45,22,52,32,104,134l57,109l63,17c35,9,93,31,129,48s71,31,78,31c27,0,110-96,122-141
		c7-24,14-50,16-57c2-6,16-12,32-12c74,0,128-29,231-121c55-49,120-99,143-109c58-25,139-35,179-21c37,13,59,1,59-30
		c0-32,21-21,38,21c23,54,60,55,53,3c-3-24,19-13,34,17c18,36,33,38,44,8c8-22,9-22,30,12c11,19,18,42,15,50s-9,41-13,73
		c-10,75-38,108-76,87c-21-11-29-11-50,0l-25,13 M469,2851c29-15,53-31,52-36c-1-13-65-18-118-10c-41,6-43,8-43,39
		C360,2899,373,2900,469,2851z M3252,1778c-7-7-12-8-12-2c0,14,12,26,19,19C3261,1792,3258,1784,3252,1778z M2232,1290l-6-117
		c-7-126-15-193-23-193c-14,0-97,66-133,107c-78,87-100,178-62,253c22,45,86,82,128,75c30-5,32-3,38,32c3,21,6,52,6,70v32l37-25
		c20-13,47-27,60-30c43-11,17-44-34-44c-33,0-34-1-29-32c3-18,7-51,8-73l3-40L2232,1290z M4010,1279c0-5-4-9-10-9c-5,0-10,7-10,16
		c0,8,5,12,10,9C4006,1292,4010,1285,4010,1279z M3346.7,1170c0.2-6-27.3-25-33.3-22c-5,3-45,37-45,42c0,6,24.3,38.3,29.3,35.3
		C3303.7,1222.3,3345,1213.3,3346.7,1170z M3767.5,1161.7c0-3-21.5-23.7-27.5-26.7c-20-18.3-41.7,3.3-41.7,8.3c0,6,60,38.3,65,38.3
		C3769.3,1181.7,3767.5,1163.7,3767.5,1161.7z M3424,684c3-8,2-12-4-9s-10,10-10,16C3410,705,3417,702,3424,684z"/>
</g>
</svg>
